<svg width="14" height="13" viewBox="0 0 14 13" fill="none" xmlns="http://www.w3.org/2000/svg">
<path fill-rule="evenodd" clip-rule="evenodd" d="M4.70012 11.2999L2.00012 11.2999C1.83444 11.2999 1.70012 11.1656 1.70012 10.9999L1.70012 8.29988C1.70012 8.13419 1.83444 7.99988 2.00012 7.99988C2.16581 7.99988 2.30012 8.13419 2.30012 8.29988L2.30012 10.2756L4.78799 7.78775L5.21226 8.21201L2.72439 10.6999L4.70012 10.6999C4.86581 10.6999 5.00012 10.8342 5.00012 10.9999C5.00012 11.1656 4.86581 11.2999 4.70012 11.2999Z" fill="#F8FCFE"/>
<path fill-rule="evenodd" clip-rule="evenodd" d="M1.7011 4.70007L1.70004 2.00007C1.69997 1.83439 1.83424 1.70002 1.99992 1.69996L4.69992 1.6989C4.86561 1.69883 4.99997 1.83309 5.00004 1.99878C5.0001 2.16446 4.86584 2.29883 4.70016 2.2989L2.72442 2.29967L5.21326 4.78656L4.78917 5.21099L2.30032 2.7241L2.3011 4.69984C2.30116 4.86552 2.1669 4.99989 2.00122 4.99996C1.83553 5.00002 1.70116 4.86576 1.7011 4.70007Z" fill="#F8FCFE"/>
<path fill-rule="evenodd" clip-rule="evenodd" d="M9.30012 1.70012L12.0001 1.70012C12.1658 1.70012 12.3001 1.83444 12.3001 2.00012L12.3001 4.70012C12.3001 4.86581 12.1658 5.00012 12.0001 5.00012C11.8344 5.00012 11.7001 4.86581 11.7001 4.70012L11.7001 2.72438L9.21225 5.21225L8.78799 4.78799L11.2759 2.30012L9.30012 2.30012C9.13443 2.30012 9.00012 2.16581 9.00012 2.00012C9.00012 1.83444 9.13443 1.70012 9.30012 1.70012Z" fill="#F8FCFE"/>
<path fill-rule="evenodd" clip-rule="evenodd" d="M12.3026 8.27016L12.3271 10.97C12.3286 11.1357 12.1955 11.2712 12.0298 11.2727L9.32989 11.2972C9.16421 11.2987 9.02869 11.1656 9.02719 10.9999C9.02569 10.8342 9.15878 10.6987 9.32446 10.6972L11.3001 10.6793L8.78984 8.21408L9.21025 7.78599L11.7205 10.2512L11.7026 8.27559C11.7011 8.10991 11.8342 7.97438 11.9999 7.97288C12.1656 7.97138 12.3011 8.10448 12.3026 8.27016Z" fill="#F8FCFE"/>
</svg>
